# xmcd
#
# Track frame offsets: 
#        150
#        18426
#        36762
#        58515
#        76770
#        95654
#        112973
#        125612
#        154781
#        174805
#        194953
#        204565
#        221623
#        243245
#
# Disc length: 3661 seconds
#
# Revision: 0
# Processed by: cddbd v1.5.2PL0 Copyright (c) Steve Scherf et al.
# Submitted via: ExactAudioCopy v0.99pb5
#
DISCID=ba0e4b0e
DTITLE=Charlie Hager and The Captain Legendary Band - Smoking Barrel
DYEAR=2010
DGENRE=Country
TTITLE0=Brothers
TTITLE1=North East Texas Women
TTITLE2=Moonshiner's Prayer
TTITLE3=Back Home
TTITLE4=Flyin'
TTITLE5=Another Fall
TTITLE6=Cocaine Afternoon
TTITLE7=Lost in A Song
TTITLE8=Alabama Woman
TTITLE9=Close My Eyes
TTITLE10=Harry the Beast Stomp
TTITLE11=Down
TTITLE12=Things
TTITLE13=Smoking Barrel
EXTD=
EXTT0=
EXTT1=
EXTT2=
EXTT3=
EXTT4=
EXTT5=
EXTT6=
EXTT7=
EXTT8=
EXTT9=
EXTT10=
EXTT11=
EXTT12=
EXTT13=
PLAYORDER=
